<svg xmlns="http://www.w3.org/2000/svg" viewBox="0 0 150 150">
   <defs>
      <filter style="color-interpolation-filters:sRGB" id="filter2158" x="-0.11018857" width="1.2203771" y="-0.057538476" height="1.1150769">
         <feGaussianBlur stdDeviation="3.1149726" id="feGaussianBlur2160" />
      </filter>
      <clipPath clipPathUnits="userSpaceOnUse" id="clipPath1954">
         <path d="m -228.95907,-176.79315 44.69568,-71.90997 h -27.97024 l 16.53646,-58.01934 -56.41295,73.32737 h 40.15997 z" />
      </clipPath>
      <filter style="color-interpolation-filters:sRGB" id="filter1854" x="-0.12419094" width="1.2483819" y="-0.095543824" height="1.1910876">
         <feGaussianBlur stdDeviation="2.9191572" />
      </filter>
      <filter style="color-interpolation-filters:sRGB" id="filter1758" x="-0.1724077" width="1.3448154" y="-1.0257854" height="3.0515709">
         <feGaussianBlur stdDeviation="2.8849533" />
      </filter>
      <filter style="color-interpolation-filters:sRGB" id="filter1924" x="-0.27236703" width="1.5447341" y="-0.16928989" height="1.3385798">
         <feGaussianBlur stdDeviation="5.0723458" />
      </filter>
   </defs>
   <g transform="translate(293.1181201,311.813333)">
      <g style="fill:none;stroke:#131313">
         <circle r="2" cx="-250.96437" cy="-299.3992" />
         <circle r="2" cy="-283.4574" cx="-227.59666" />
         <circle r="2" cx="-185.23445" cy="-299.42676" />
         <circle r="2" cy="-279.89755" cx="-165.70419" />
         <circle r="2" cx="-165.70419" cy="-270.14105" />
         <circle r="2" cy="-258.7309" cx="-171.9408" />
         <circle r="2" cx="-175.87517" cy="-219.61232" />
         <circle r="2" cy="-204.94591" cx="-176.87743" />
         <circle r="2" cx="-179.51671" cy="-184.19911" />
         <circle r="2" cy="-189.47769" cx="-195.78674" />
         <circle r="2" cx="-240.49765" cy="-189.52551" />
         <circle r="2" cy="-184.31375" cx="-256.80109" />
         <circle r="2" cx="-259.40695" cy="-204.96033" />
         <circle r="2" cy="-219.66016" cx="-260.37579" />
         <circle r="2" cx="-264.31802" cy="-258.68152" />
         <circle r="2" cy="-270.14069" cx="-270.53204" />
         <circle r="2" cx="-270.43182" cy="-279.79581" />
         <circle r="2" cy="-279.79581" cx="-270.43182" />
         <path d="m -268.93996,-270.14593 h 22.45064 l 14.53278,14.53278" />
         <path d="m -225.77593,-264.266 -16.30344,-16.30345 v -9.82216 l -7.40485,-7.40487" />
         <path d="m -268.60587,-279.96808 h 10.08942 l 9.68852,9.68851" />
         <path d="m -227.64682,-281.10399 v 17.70661" />
         <path d="m -186.75458,-297.94197 -7.38332,7.38333 v 9.72193 l -14.34903,14.34902" />
         <path d="m -167.84526,-270.14593 h -22.11655 l -12.92917,12.92916 v 8.78649" />
         <path d="m -174.32655,-258.58653 h -11.69304 l 0.13363,18.24115 h -6.81537" />
         <path d="m -167.64481,-279.90128 h -10.22306 l -9.6217,9.62171" />
         <path d="m -178.03491,-219.76563 h -7.95127 l -13.39689,-13.39688" />
         <path d="m -179.10399,-204.93217 h -16.20321 v -30.23487" />
         <path d="m -181.00828,-185.68876 -8.25195,-8.25195 v -10.92464" />
         <path d="m -196.87741,-191.33483 -11.77657,-11.77657 v -8.63614" />
         <path d="m -239.54031,-191.43506 11.86008,-11.86008 v -34.31073 h -0.0334" />
         <path d="m -258.38281,-219.76563 h 8.01808 l 14.06506,-14.06506" />
         <path d="m -255.50966,-185.48831 8.51921,-8.51922 v -10.65737" />
         <path d="m -257.38055,-204.93217 h 16.43707 v -24.05426" />
         <path d="m -262.32504,-258.58653 h 12.02713 v 18.4416 h 5.14494" />
      </g>
      <path style="fill:#00000062;filter:url(#filter2158)"
         d="m -226.01911,-171.84867 44.69568,-71.90997 h -27.97024 l 16.53646,-58.01934 -56.41295,73.32737 h 40.15997 z" />
      <g clip-path="url(#clipPath1954)">
         <path fill="#ffd21b"
            d="m -228.95907,-176.79315 44.69568,-71.90997 h -27.97024 l 16.53646,-58.01934 -56.41295,73.32737 h 40.15997 z" />
         <path id="path1382" d="m -195.69717,-306.72246 -40.6025,72.89177 -15.81045,0.4356 z"
            style="fill:#fff0b694;filter:url(#filter1854)" />
         <path id="path1520" d="m -252.11012,-233.39509 6.95715,-6.74984 33.20282,6.74984"
            style="fill:#bc9300b9;filter:url(#filter1758)" />
         <path d="m -228.95907,-176.79315 44.69568,-71.90997 h -12.17971 z"
            style="fill:#caa200;filter:url(#filter1924)" />
      </g>
   </g>
</svg>