<?xml version="1.0" encoding="UTF-8" standalone="no"?>
<svg
   xmlns:dc="http://purl.org/dc/elements/1.1/"
   xmlns:cc="http://creativecommons.org/ns#"
   xmlns:rdf="http://www.w3.org/1999/02/22-rdf-syntax-ns#"
   xmlns:svg="http://www.w3.org/2000/svg"
   xmlns="http://www.w3.org/2000/svg"
   xmlns:sodipodi="http://sodipodi.sourceforge.net/DTD/sodipodi-0.dtd"
   xmlns:inkscape="http://www.inkscape.org/namespaces/inkscape"
   viewBox="0 0 150 150"
   version="1.1"
   id="svg2771"
   sodipodi:docname="logoInk.svg"
   inkscape:version="0.92.4 (5da689c313, 2019-01-14)">
  <metadata
     id="metadata2775">
    <rdf:RDF>
      <cc:Work
         rdf:about="">
        <dc:format>image/svg+xml</dc:format>
        <dc:type
           rdf:resource="http://purl.org/dc/dcmitype/StillImage" />
        <dc:title></dc:title>
      </cc:Work>
    </rdf:RDF>
  </metadata>
  <sodipodi:namedview
     pagecolor="#ffffff"
     bordercolor="#666666"
     borderopacity="1"
     objecttolerance="10"
     gridtolerance="10"
     guidetolerance="10"
     inkscape:pageopacity="0"
     inkscape:pageshadow="2"
     inkscape:window-width="1920"
     inkscape:window-height="986"
     id="namedview2773"
     showgrid="false"
     inkscape:zoom="3.1466667"
     inkscape:cx="5.3191591"
     inkscape:cy="96.956763"
     inkscape:window-x="-11"
     inkscape:window-y="-11"
     inkscape:window-maximized="1"
     inkscape:current-layer="svg2771" />
  <defs
     id="defs2683">
    <filter
       style="color-interpolation-filters:sRGB"
       id="blur1"
       x="-0.11018857"
       width="1.2203771"
       y="-0.057538476"
       height="1.1150769">
      <feGaussianBlur
         stdDeviation="3.1149726"
         id="feGaussianBlur2160" />
    </filter>
    <clipPath
       clipPathUnits="userSpaceOnUse"
       id="clip">
      <path
         d="m -228.95907,-176.79315 44.69568,-71.90997 h -27.97024 l 16.53646,-58.01934 -56.41295,73.32737 h 40.15997 z"
         id="path2671" />
    </clipPath>
    <filter
       style="color-interpolation-filters:sRGB"
       id="blur2"
       x="-0.12419094"
       width="1.2483819"
       y="-0.095543824"
       height="1.1910876">
      <feGaussianBlur
         stdDeviation="2.9191572"
         id="feGaussianBlur2674" />
    </filter>
    <filter
       style="color-interpolation-filters:sRGB"
       id="blur3"
       x="-0.1724077"
       width="1.3448154"
       y="-1.0257854"
       height="3.0515709">
      <feGaussianBlur
         stdDeviation="2.8849533"
         id="feGaussianBlur2677" />
    </filter>
    <filter
       style="color-interpolation-filters:sRGB"
       id="blur4"
       x="-0.27236703"
       width="1.5447341"
       y="-0.16928989"
       height="1.3385798">
      <feGaussianBlur
         stdDeviation="5.0723458"
         id="feGaussianBlur2680" />
    </filter>
  </defs>
  <g
     transform="translate(293.1181201,311.813333)"
     id="g2769">
    <g
       style="fill:none;stroke:#131313"
       id="g2755">
      <circle
         r="2"
         cx="-250.96437"
         cy="-299.3992"
         id="circle2685" />
      <circle
         r="2"
         cy="-283.4574"
         cx="-227.59666"
         id="circle2687" />
      <circle
         r="2"
         cx="-185.23445"
         cy="-299.42676"
         id="circle2689" />
      <circle
         r="2"
         cy="-279.89755"
         cx="-165.70419"
         id="circle2691" />
      <circle
         r="2"
         cx="-165.70419"
         cy="-270.14105"
         id="circle2693" />
      <circle
         r="2"
         cy="-258.7309"
         cx="-171.9408"
         id="circle2695" />
      <circle
         r="2"
         cx="-175.87517"
         cy="-219.61232"
         id="circle2697" />
      <circle
         r="2"
         cy="-204.94591"
         cx="-176.87743"
         id="circle2699" />
      <circle
         r="2"
         cx="-179.51671"
         cy="-184.19911"
         id="circle2701" />
      <circle
         r="2"
         cy="-189.47769"
         cx="-195.78674"
         id="circle2703" />
      <circle
         r="2"
         cx="-240.49765"
         cy="-189.52551"
         id="circle2705" />
      <circle
         r="2"
         cy="-184.31375"
         cx="-256.80109"
         id="circle2707" />
      <circle
         r="2"
         cx="-259.40695"
         cy="-204.96033"
         id="circle2709" />
      <circle
         r="2"
         cy="-219.66016"
         cx="-260.37579"
         id="circle2711" />
      <circle
         r="2"
         cx="-264.31802"
         cy="-258.68152"
         id="circle2713" />
      <circle
         r="2"
         cy="-270.14069"
         cx="-270.53204"
         id="circle2715" />
      <circle
         r="2"
         cx="-270.43182"
         cy="-279.79581"
         id="circle2717" />
      <circle
         r="2"
         cy="-279.79581"
         cx="-270.43182"
         id="circle2719" />
      <path
         d="m -268.93996,-270.14593 h 22.45064 l 14.53278,14.53278"
         id="path2721" />
      <path
         d="m -225.77593,-264.266 -16.30344,-16.30345 v -9.82216 l -7.40485,-7.40487"
         id="path2723" />
      <path
         d="m -268.60587,-279.96808 h 10.08942 l 9.68852,9.68851"
         id="path2725" />
      <path
         d="m -227.64682,-281.10399 v 17.70661"
         id="path2727" />
      <path
         d="m -186.75458,-297.94197 -7.38332,7.38333 v 9.72193 l -14.34903,14.34902"
         id="path2729" />
      <path
         d="m -167.84526,-270.14593 h -22.11655 l -12.92917,12.92916 v 8.78649"
         id="path2731" />
      <path
         d="m -174.32655,-258.58653 h -11.69304 l 0.13363,18.24115 h -6.81537"
         id="path2733" />
      <path
         d="m -167.64481,-279.90128 h -10.22306 l -9.6217,9.62171"
         id="path2735" />
      <path
         d="m -178.03491,-219.76563 h -7.95127 l -13.39689,-13.39688"
         id="path2737" />
      <path
         d="m -179.10399,-204.93217 h -16.20321 v -30.23487"
         id="path2739" />
      <path
         d="m -181.00828,-185.68876 -8.25195,-8.25195 v -10.92464"
         id="path2741" />
      <path
         d="m -196.87741,-191.33483 -11.77657,-11.77657 v -8.63614"
         id="path2743" />
      <path
         d="m -239.54031,-191.43506 11.86008,-11.86008 v -34.31073 h -0.0334"
         id="path2745" />
      <path
         d="m -258.38281,-219.76563 h 8.01808 l 14.06506,-14.06506"
         id="path2747" />
      <path
         d="m -255.50966,-185.48831 8.51921,-8.51922 v -10.65737"
         id="path2749" />
      <path
         d="m -257.38055,-204.93217 h 16.43707 v -24.05426"
         id="path2751" />
      <path
         d="m -262.32504,-258.58653 h 12.02713 v 18.4416 h 5.14494"
         id="path2753" />
    </g>
    <path
       style="fill:#00000062;filter:url(#blur1)"
       d="m -226.01911,-171.84867 44.69568,-71.90997 h -27.97024 l 16.53646,-58.01934 -56.41295,73.32737 h 40.15997 z"
       id="path2757" />
    <g
       clip-path="url(#clip)"
       id="g2767">
      <path
         fill="#ffd21b"
         d="m -228.95907,-176.79315 44.69568,-71.90997 h -27.97024 l 16.53646,-58.01934 -56.41295,73.32737 h 40.15997 z"
         id="path2759" />
      <path
         d="m -195.69717,-306.72246 -40.6025,72.89177 -15.81045,0.4356 z"
         fill="#fff0b694"
         filter="url(#blur2)"
         id="path2761"
         style="fill:#fff0b6;fill-opacity:0.58039218" />
      <path
         d="m -252.11012,-233.39509 6.95715,-6.74984 33.20282,6.74984"
         fill="#bc9300b9"
         filter="url(#blur3)"
         id="path2763"
         style="fill:#bc9300;fill-opacity:0.72549021" />
      <path
         d="m -228.95907,-176.79315 44.69568,-71.90997 h -12.17971 z"
         fill="#caa200"
         filter="url(#blur4)"
         id="path2765" />
    </g>
  </g>
</svg>
